<mxfile host="app.diagrams.net" modified="2024-03-24T17:45:37.291Z" agent="Mozilla/5.0 (X11; Linux x86_64; rv:124.0) Gecko/20100101 Firefox/124.0" etag="jqs2r_0v76cz-qDWKTg6" version="24.1.0" type="device">
  <diagram name="Page-1" id="1BNxJkGeBlmiElYtAQj6">
    <mxGraphModel dx="1160" dy="633" grid="1" gridSize="10" guides="1" tooltips="1" connect="1" arrows="1" fold="1" page="1" pageScale="1" pageWidth="850" pageHeight="1100" math="0" shadow="0">
      <root>
        <mxCell id="0" />
        <mxCell id="1" parent="0" />
        <mxCell id="BfzzqWiI2RfgQQaU4TGp-6" style="edgeStyle=orthogonalEdgeStyle;rounded=0;orthogonalLoop=1;jettySize=auto;html=1;exitX=0.5;exitY=1;exitDx=0;exitDy=0;entryX=0.5;entryY=0;entryDx=0;entryDy=0;fillColor=#f8cecc;strokeColor=#b85450;" edge="1" parent="1" source="BfzzqWiI2RfgQQaU4TGp-1" target="BfzzqWiI2RfgQQaU4TGp-4">
          <mxGeometry relative="1" as="geometry" />
        </mxCell>
        <mxCell id="BfzzqWiI2RfgQQaU4TGp-7" style="edgeStyle=orthogonalEdgeStyle;rounded=0;orthogonalLoop=1;jettySize=auto;html=1;exitX=0.5;exitY=1;exitDx=0;exitDy=0;entryX=0.5;entryY=0;entryDx=0;entryDy=0;fillColor=#f8cecc;strokeColor=#b85450;" edge="1" parent="1" source="BfzzqWiI2RfgQQaU4TGp-1" target="BfzzqWiI2RfgQQaU4TGp-5">
          <mxGeometry relative="1" as="geometry" />
        </mxCell>
        <mxCell id="BfzzqWiI2RfgQQaU4TGp-1" value="WebApp" style="rounded=0;whiteSpace=wrap;html=1;" vertex="1" parent="1">
          <mxGeometry x="360" y="80" width="80" height="40" as="geometry" />
        </mxCell>
        <mxCell id="BfzzqWiI2RfgQQaU4TGp-4" value="Redis Cache" style="rounded=0;whiteSpace=wrap;html=1;" vertex="1" parent="1">
          <mxGeometry x="310" y="160" width="80" height="40" as="geometry" />
        </mxCell>
        <mxCell id="BfzzqWiI2RfgQQaU4TGp-5" value="MongoDb" style="rounded=0;whiteSpace=wrap;html=1;" vertex="1" parent="1">
          <mxGeometry x="410" y="160" width="80" height="40" as="geometry" />
        </mxCell>
        <mxCell id="BfzzqWiI2RfgQQaU4TGp-12" value="" style="group" vertex="1" connectable="0" parent="1">
          <mxGeometry x="500" y="50" width="120" height="30" as="geometry" />
        </mxCell>
        <mxCell id="BfzzqWiI2RfgQQaU4TGp-9" value="Host Loopback" style="text;html=1;align=center;verticalAlign=middle;whiteSpace=wrap;rounded=0;" vertex="1" parent="BfzzqWiI2RfgQQaU4TGp-12">
          <mxGeometry x="30" width="90" height="30" as="geometry" />
        </mxCell>
        <mxCell id="BfzzqWiI2RfgQQaU4TGp-10" value="" style="endArrow=classic;html=1;rounded=0;entryX=0;entryY=0.5;entryDx=0;entryDy=0;fillColor=#f8cecc;strokeColor=#b85450;" edge="1" parent="BfzzqWiI2RfgQQaU4TGp-12" target="BfzzqWiI2RfgQQaU4TGp-9">
          <mxGeometry width="50" height="50" relative="1" as="geometry">
            <mxPoint y="15" as="sourcePoint" />
            <mxPoint y="120" as="targetPoint" />
          </mxGeometry>
        </mxCell>
        <mxCell id="BfzzqWiI2RfgQQaU4TGp-13" value="&lt;h1 style=&quot;margin-top: 0px;&quot;&gt;Step 1 - Apps Only&lt;br&gt;&lt;/h1&gt;&lt;p&gt;1. All apps are configured to communicate over the host loopback&lt;/p&gt;&lt;p&gt;2. No volumes means no data persistence&lt;/p&gt;&lt;p&gt;3. WebApp image is built on docker-compose up&lt;/p&gt;&lt;p&gt;4. Redis and Mongo are pulled&lt;br&gt;&lt;/p&gt;" style="text;html=1;whiteSpace=wrap;overflow=hidden;rounded=0;" vertex="1" parent="1">
          <mxGeometry x="80" y="40" width="200" height="190" as="geometry" />
        </mxCell>
      </root>
    </mxGraphModel>
  </diagram>
</mxfile>
